PathFileType	4	(X/Y/Z)	C:\Users\°ÂÌØÂü\Desktop\20201223\Trimmed_bx_n_5_901.trc
DataRate	CameraRate	NumFrames	NumMarkers	Units	OrigDataRate	OrigDataStartFrame	OrigNumFrames
50.00	50.00	       5	43	mm	50.00	101	       402
Frame#	Time	Top.Head			R.Acromium			L.Acromium			Sternum			R.ASIS			L.ASIS			V.Sacral			R.Thigh.Upper			R.Thigh.Front			R.Thigh.Rear			R.Knee.Lat			R.Knee.Med			R.Shank.Upper			R.Shank.Front			R.Shank.Rear			R.Ankle.Lat			R.Midfoot.Lat			R.Toe.Lat			R.Toe.Tip			R.Toe.Med			R.Ankle.Med			R.Midfoot.Sup			R.Heel			L.Thigh.Upper			L.Thigh.Front			L.Thigh.Rear			L.Knee.Lat			L.Knee.Med			L.Shank.Upper			L.Shank.Front			L.Shank.Rear			L.Ankle.Lat			L.Midfoot.Lat			L.Toe.Lat			L.Toe.Tip			L.Toe.Med			L.Ankle.Med			L.Midfoot.Sup			L.Heel			origin1 front left			origin2 front right			origin 3 back right			origin 4 back leftt			
		X1	Y1	Z1	X2	Y2	Z2	X3	Y3	Z3	X4	Y4	Z4	X5	Y5	Z5	X6	Y6	Z6	X7	Y7	Z7	X8	Y8	Z8	X9	Y9	Z9	X10	Y10	Z10	X11	Y11	Z11	X12	Y12	Z12	X13	Y13	Z13	X14	Y14	Z14	X15	Y15	Z15	X16	Y16	Z16	X17	Y17	Z17	X18	Y18	Z18	X19	Y19	Z19	X20	Y20	Z20	X21	Y21	Z21	X22	Y22	Z22	X23	Y23	Z23	X24	Y24	Z24	X25	Y25	Z25	X26	Y26	Z26	X27	Y27	Z27	X28	Y28	Z28	X29	Y29	Z29	X30	Y30	Z30	X31	Y31	Z31	X32	Y32	Z32	X33	Y33	Z33	X34	Y34	Z34	X35	Y35	Z35	X36	Y36	Z36	X37	Y37	Z37	X38	Y38	Z38	X39	Y39	Z39	X40	Y40	Z40	X41	Y41	Z41	X42	Y42	Z42	X43	Y43	Z43	

101	2.000	-92.99490	255.38690	1249.68933	-280.11017	92.08249	1053.12793	-282.91861	403.70792	1047.97510	-441.25098	244.35597	1042.27930	-735.55133	135.96236	961.32098	-708.68054	357.34601	955.39783	-879.37988	260.69971	1090.66150	-810.22876	85.07504	817.04315	-716.03369	151.89784	807.93262	-778.54602	92.39696	708.62384	-777.51459	119.16090	590.16443	-756.21973	228.08197	550.44812	-787.61591	116.08714	522.36414	-713.38110	173.23944	527.11121	-779.76062	106.44153	471.12958	-694.50482	134.77847	211.96269	-606.12714	86.15781	163.92468	-557.99097	69.81865	160.73328	-485.04959	121.31026	157.13246	-534.37482	167.89424	163.89398	-658.08936	216.79669	225.92053	-603.23383	197.43085	175.21527	-730.78137	197.02977	170.87061	-796.09094	449.42117	841.60968	-708.43701	387.59778	805.49286	-787.83990	443.07208	722.81183	-770.51489	415.26245	589.71246	-762.72498	291.70813	550.86292	-774.37665	418.14175	543.48370	-715.50482	357.63672	532.68073	-808.51147	424.02188	468.18848	-685.22913	410.55331	212.77359	-580.42517	451.13605	162.59430	-543.11823	462.57318	156.70657	-482.60614	406.04535	165.14832	-526.62872	368.82022	175.89565	-655.53937	317.59348	213.11850	-598.19464	332.15671	174.08195	-734.59100	338.72604	162.71411	-444.15585	448.03644	145.88969	-450.85852	75.08606	143.05115	-806.25464	82.17701	140.92207	-799.71948	456.59174	144.79460	
102	2.020	-94.11438	255.63297	1254.69873	-280.77090	92.21661	1057.32935	-283.55765	404.95477	1052.42346	-441.60522	244.51221	1045.37524	-735.10034	135.82033	961.90936	-708.44189	357.37155	955.98535	-879.62671	260.56848	1090.56006	-809.87616	85.02469	817.13068	-715.84778	151.81038	807.90302	-778.39880	92.25599	708.70135	-777.49438	118.99561	590.18921	-756.30658	227.87611	550.41882	-787.65631	115.95004	522.34973	-713.43134	172.98520	527.17883	-779.77167	106.23531	471.17511	-694.53827	134.73163	211.93446	-606.17395	86.11807	163.88963	-558.00098	69.79433	160.73514	-485.08966	121.30914	157.16704	-534.40607	167.85017	163.89731	-658.11053	216.72012	225.93513	-603.20068	197.36894	175.26205	-730.78583	197.00858	170.81662	-795.97174	449.23859	841.59961	-708.24536	387.77304	805.64941	-787.89343	442.86227	722.84003	-770.51031	415.24002	589.90790	-761.81934	291.83316	550.70691	-774.47748	417.98196	543.52094	-715.43970	357.61334	532.69165	-808.62250	423.73911	468.20480	-685.24738	410.46844	212.81190	-580.41638	451.15225	162.56207	-543.11658	462.59399	156.68018	-482.60425	406.07166	165.15125	-526.62140	368.84781	175.90794	-655.49896	317.58206	213.10866	-598.18207	332.15424	174.06702	-734.59735	338.68887	162.71696	-444.12689	448.07404	145.92667	-450.81946	75.03493	143.09488	-806.24530	82.19009	140.92975	-799.68799	456.56009	144.79004	
103	2.040	-95.46063	255.85217	1260.38794	-281.47900	92.33026	1061.99670	-284.26077	405.84961	1057.34216	-441.97803	244.66597	1048.60291	-734.57343	135.64326	962.55865	-708.13568	357.36877	956.66339	-879.87317	260.36749	1090.44189	-809.44928	84.92076	817.25153	-715.57458	151.68520	807.87561	-778.18628	92.07965	708.78925	-777.42273	118.79864	590.20459	-756.34753	227.63643	550.40863	-787.65100	115.77090	522.33972	-713.43372	172.69669	527.24084	-779.75079	105.99763	471.22214	-694.57172	134.65965	211.91148	-606.21338	86.07813	163.84947	-558.00409	69.76118	160.75111	-485.12698	121.30602	157.19832	-534.43695	167.80550	163.89821	-658.14044	216.62068	225.95076	-603.16394	197.30005	175.31757	-730.79181	196.98627	170.77271	-795.81165	449.03650	841.62042	-708.01160	387.91641	805.82605	-787.91449	442.61896	722.89850	-770.47998	415.19098	590.11145	-760.87292	291.95911	550.56335	-774.54327	417.81348	543.58124	-715.33374	357.58075	532.71625	-808.71796	423.43964	468.24179	-685.26801	410.37888	212.85313	-580.41461	451.16260	162.51634	-543.11646	462.61362	156.65833	-482.59973	406.10153	165.15810	-526.61536	368.88153	175.92154	-655.45892	317.57516	213.10217	-598.17426	332.15112	174.05717	-734.61285	338.65527	162.71533	-444.09341	448.12564	145.97282	-450.77393	74.97812	143.14220	-806.23572	82.20116	140.93806	-799.67700	456.51303	144.76549	
104	2.060	-97.06519	256.04279	1266.79553	-282.24948	92.40520	1067.13257	-285.03613	406.40625	1062.75330	-442.36938	244.81703	1051.96191	-733.95801	135.43903	963.26807	-707.74677	357.33087	957.42889	-880.10645	260.09949	1090.30103	-808.93420	84.76830	817.40619	-715.19507	151.51997	807.85583	-777.88959	91.87504	708.88336	-777.28522	118.56925	590.21149	-756.31708	227.36823	550.42645	-787.58044	115.54614	522.33636	-713.37561	172.38504	527.28741	-779.68768	105.73267	471.26874	-694.60455	134.56987	211.89070	-606.24213	86.03808	163.80774	-557.99725	69.72256	160.77869	-485.15964	121.30206	157.22252	-534.46490	167.76315	163.89627	-658.17529	216.50995	225.96584	-603.12903	197.22913	175.37671	-730.79871	196.96405	170.73940	-795.59827	448.81030	841.67688	-707.72076	388.01324	806.01367	-787.88147	442.34186	722.98596	-770.41528	415.09988	590.30353	-759.88593	292.08566	550.43286	-774.55298	417.64822	543.67078	-715.17706	357.53534	532.75879	-808.78394	423.13150	468.30707	-685.28723	410.28683	212.89679	-580.42090	451.17157	162.46497	-543.11908	462.63104	156.64273	-482.59250	406.13370	165.16800	-526.61182	368.92105	175.93686	-655.41968	317.56918	213.10287	-598.16803	332.14749	174.05292	-734.63214	338.62341	162.70959	-444.05927	448.18814	146.02602	-450.72684	74.92192	143.18904	-806.22705	82.20924	140.94508	-799.68848	456.45654	144.72472	
105	2.080	-98.94879	256.20511	1273.94141	-283.09705	92.42450	1072.74744	-285.89813	406.74890	1068.67163	-442.77936	244.96516	1055.45166	-733.23999	135.21277	964.04126	-707.26111	357.25208	958.27850	-880.31433	259.77228	1090.13354	-808.31665	84.57539	817.59027	-714.69580	151.31548	807.84808	-777.49487	91.64864	708.98108	-777.07196	118.30773	590.21295	-756.19855	227.07625	550.47650	-787.43115	115.27386	522.34192	-713.24994	172.06320	527.31171	-779.57428	105.44238	471.31390	-694.63708	134.47078	211.86607	-606.25934	85.99709	163.76743	-557.97998	69.68118	160.81325	-485.18710	121.29905	157.23756	-534.48853	167.72562	163.89247	-658.21155	216.40073	225.97815	-603.10181	197.15981	175.43431	-730.80804	196.94177	170.71373	-795.31842	448.55176	841.77020	-707.35645	388.05374	806.20483	-787.77283	442.03052	723.09784	-770.30640	414.95398	590.46771	-758.85852	292.21246	550.31604	-774.48792	417.49423	543.79504	-714.96112	357.47180	532.82068	-808.80609	422.82074	468.40619	-685.30316	410.19595	212.94218	-580.43555	451.18240	162.41521	-543.12543	462.64502	156.63446	-482.58298	406.16623	165.18011	-526.61145	368.96570	175.95476	-655.38342	317.55972	213.11316	-598.16040	332.14395	174.05496	-734.65088	338.59131	162.69896	-444.02847	448.25552	146.08311	-450.68332	74.87254	143.23155	-806.22015	82.21415	140.94884	-799.72009	456.39731	144.67302	
